<?xml version="1.0" standalone="no"?>
<!DOCTYPE svg PUBLIC "-//W3C//DTD SVG 20010904//EN"
 "http://www.w3.org/TR/2001/REC-SVG-20010904/DTD/svg10.dtd">
<svg version="1.0" xmlns="http://www.w3.org/2000/svg"
 width="64.000000pt" height="64.000000pt" viewBox="0 0 64.000000 64.000000"
 preserveAspectRatio="xMidYMid meet">

<g transform="translate(0.000000,64.000000) scale(0.100000,-0.100000)"
fill="#000000" stroke="none">
<path d="M402 439 c2 -114 6 -143 18 -149 47 -22 55 -29 55 -50 0 -49 -66 -52
-73 -3 -2 12 -12 29 -23 39 -10 9 -19 28 -19 41 0 16 -6 23 -20 23 -18 0 -20
-7 -20 -60 0 -33 6 -69 12 -80 17 -26 0 -55 -32 -55 -32 0 -49 29 -32 55 6 11
12 47 12 80 0 53 -2 60 -20 60 -14 0 -20 -7 -20 -23 0 -13 -9 -32 -19 -41 -11
-10 -21 -27 -23 -39 -4 -29 -33 -45 -55 -31 -23 14 -23 54 0 65 9 5 25 13 35
18 33 16 26 45 -18 63 -44 19 -51 37 -20 45 11 3 20 13 20 23 0 10 -9 20 -20
23 -26 7 -26 27 0 34 11 3 20 9 20 14 0 14 -114 11 -128 -3 -17 -17 -17 -359
0 -376 8 -8 50 -12 125 -12 105 0 113 -1 113 -19 0 -17 -8 -20 -47 -23 -36 -2
-49 -7 -51 -21 -3 -16 9 -17 143 -17 134 0 146 1 143 18 -2 13 -15 18 -51 20
-39 3 -47 6 -47 23 0 18 8 19 114 19 91 0 118 3 130 16 13 13 16 44 16 188 0
120 -4 176 -12 184 -7 7 -43 12 -90 12 l-78 0 0 28 c0 27 -15 52 -32 52 -5 0
-7 -64 -6 -141z m73 21 c0 -8 -8 -16 -17 -18 -13 -2 -18 3 -18 18 0 15 5 20
18 18 9 -2 17 -10 17 -18z m0 -80 c0 -8 -8 -16 -17 -18 -13 -2 -18 3 -18 18 0
15 5 20 18 18 9 -2 17 -10 17 -18z"/>
<path d="M194 537 c-3 -8 -4 -47 -2 -88 l3 -74 85 0 85 0 0 85 0 85 -83 3
c-63 2 -84 0 -88 -11z m97 -63 c10 -27 18 -57 18 -66 1 -25 -20 -23 -26 2 -3
11 -13 20 -23 20 -10 0 -20 -9 -23 -20 -6 -23 -27 -27 -27 -6 0 11 12 51 35
114 9 25 29 6 46 -44z m59 -14 c0 -40 -4 -70 -10 -70 -6 0 -10 30 -10 70 0 40
4 70 10 70 6 0 10 -30 10 -70z"/>
</g>
</svg>
